<svg width="601" height="440" viewBox="0 0 601 440" fill="none" xmlns="http://www.w3.org/2000/svg">
<path fill-rule="evenodd" clip-rule="evenodd" d="M218.545 8.22733C239.2 13.7572 263.384 20.2316 300.383 21.5074L300.384 21.5136C337.383 20.2378 361.567 13.7635 382.222 8.23356C395.985 4.54917 408.181 1.28404 421.558 0.255026C449.194 -1.87083 520.7 7.11731 563.991 127.807C579.537 171.149 595.578 228.566 600.13 304.36C606.508 410.546 563.499 433.203 537.417 438.289C516.159 442.434 481.267 443.497 439.628 387.162C404.842 340.098 333.618 340.305 305.581 340.386L295.186 340.38C267.149 340.299 195.925 340.092 161.139 387.155C119.5 443.491 84.6082 442.428 63.3497 438.283C37.2677 433.197 -5.74088 410.54 0.636835 304.353C5.18919 228.559 21.2299 171.143 36.7765 127.8C80.0669 7.11108 151.573 -1.87706 179.209 0.248797C192.586 1.27781 204.782 4.54294 218.545 8.22733ZM409.228 152.254C423.904 152.254 435.801 140.357 435.801 125.681C435.801 111.005 423.904 99.1076 409.228 99.1076C394.552 99.1076 382.655 111.005 382.655 125.681C382.655 140.357 394.552 152.254 409.228 152.254ZM409.228 258.547C423.904 258.547 435.801 246.65 435.801 231.974C435.801 217.298 423.904 205.401 409.228 205.401C394.552 205.401 382.655 217.298 382.655 231.974C382.655 246.65 394.552 258.547 409.228 258.547ZM356.082 152.254C370.758 152.254 382.655 164.151 382.655 178.827C382.655 193.503 370.758 205.401 356.082 205.401C341.406 205.401 329.509 193.503 329.509 178.827C329.509 164.151 341.406 152.254 356.082 152.254ZM488.948 178.827C488.948 164.151 477.051 152.254 462.375 152.254C447.699 152.254 435.801 164.151 435.801 178.827C435.801 193.503 447.699 205.401 462.375 205.401C477.051 205.401 488.948 193.503 488.948 178.827ZM171.132 118.24C171.132 107.674 179.698 99.1076 190.265 99.1076C200.831 99.1076 209.397 107.674 209.397 118.24V159.695H250.852C261.418 159.695 269.984 168.261 269.984 178.827C269.984 189.394 261.418 197.96 250.852 197.96H209.397V239.414C209.397 249.981 200.831 258.547 190.265 258.547C179.698 258.547 171.132 249.981 171.132 239.414V197.96H129.678C119.111 197.96 110.545 189.394 110.545 178.827C110.545 168.261 119.111 159.695 129.678 159.695H171.132V118.24Z" fill="#484848" fill-opacity="0.48"/>
</svg>
