<svg width="601" height="346" viewBox="0 0 601 346" fill="none" xmlns="http://www.w3.org/2000/svg">
<mask id="mask0_11_248" style="mask-type:alpha" maskUnits="userSpaceOnUse" x="0" y="0" width="601" height="346">
<path fill-rule="evenodd" clip-rule="evenodd" d="M550.16 0.372674C554.91 10.2008 559.455 21.0194 563.726 32.925C579.272 76.2671 595.313 133.684 599.865 209.478C606.243 315.664 563.234 338.322 537.152 343.407C515.894 347.552 481.002 348.615 439.363 292.28C404.577 245.217 333.354 245.424 305.317 245.505H305.316L294.921 245.498C266.885 245.417 195.661 245.21 160.875 292.274C119.236 348.609 84.3434 347.546 63.0849 343.401C39.9365 338.887 3.45507 320.532 7.62939e-06 242.226C55.7565 200.535 129.293 152.645 172.15 151.435C174.919 158.591 181.867 163.665 190 163.665C195.14 163.665 199.806 161.638 203.244 158.34C243.612 165.852 302.966 144.824 352.079 110.258C353.3 110.43 354.548 110.519 355.817 110.519C369.806 110.519 381.27 99.71 382.313 85.9889C388.229 80.5581 393.836 74.9352 399.058 69.1586C402.814 65.0032 406.502 61.0689 410.137 57.3468C423.088 56.7841 433.635 46.9506 435.306 34.3169C470.353 6.35737 503.51 -1.96215 550.16 0.372674ZM382.391 137.092C382.391 122.416 394.288 110.519 408.964 110.519C423.64 110.519 435.537 122.416 435.537 137.092C435.537 151.768 423.64 163.665 408.964 163.665C394.288 163.665 382.391 151.768 382.391 137.092ZM435.537 83.9455C435.537 69.2697 447.434 57.3723 462.11 57.3723C476.786 57.3724 488.683 69.2697 488.684 83.9455C488.684 98.6214 476.786 110.519 462.11 110.519C447.434 110.519 435.537 98.6215 435.537 83.9455Z" fill="#D9D9D9"/>
</mask>
<g mask="url(#mask0_11_248)">
<path d="M-124.187 -301.089H722.529L722.74 -216.268H724.654V-214.142H722.745L722.952 -131.446H724.654V-129.32H722.957L723.164 -46.6236H724.654V-44.4976H723.169L723.376 38.1977H724.654V40.3237H723.381L723.588 123.02H724.654V125.146H723.593L723.757 190.925L723.8 207.842L723.805 209.967L724.013 292.664H724.012L724.017 294.789H724.019L724.227 377.486H724.224L724.229 379.612H724.232L724.44 462.307H724.436L724.441 464.433H724.446L724.654 547.129H724.648L724.653 549.255L723.902 550.006L723.152 549.255H-124.188L-124.939 550.006L-126.442 548.502L-125.69 547.751V-299.586L-126.442 -300.338L-124.939 -301.841L-124.187 -301.089ZM-122.062 547.129H-40.8689V465.936L-122.062 547.129ZM-38.7429 547.129H43.9534V464.433H-38.7429V547.129ZM46.0793 547.129H128.775V464.433H46.0793V547.129ZM130.901 547.129H213.597V464.433H130.901V547.129ZM215.723 547.129H298.419V464.433H215.723V547.129ZM300.545 547.129H383.24V464.433H300.545V547.129ZM385.366 547.129H468.063V464.433H385.366V547.129ZM470.189 547.129H552.885V464.433H470.189V547.129ZM555.01 547.129H637.706V464.433H555.01V547.129ZM639.832 547.129H721.026L639.832 465.936V547.129ZM-123.565 545.625L-42.3728 464.433H-123.565V545.625ZM724.654 462.307V464.433H724.446L724.44 462.307H724.654ZM-123.565 462.307H-40.8689V379.612H-123.565V462.307ZM-37.24 462.307H43.9534V381.114L-37.24 462.307ZM46.0793 462.307H128.775V379.612H46.0793V462.307ZM130.901 462.307H213.597V379.612H130.901V462.307ZM215.723 462.307H298.419V379.612H215.723V462.307ZM300.545 462.307H383.24V379.612H300.545V462.307ZM385.366 462.307H468.063V379.612H385.366V462.307ZM470.189 462.307H552.885V379.612H470.189V462.307ZM555.01 462.307H636.203L555.01 381.115V462.307ZM637.706 460.804V379.612H556.514L637.706 460.804ZM-38.7429 460.803L42.4495 379.612H-38.7429V460.803ZM724.654 377.486V379.612H724.232L724.227 377.486H724.654ZM-123.565 377.486H-40.8689V294.789H-123.565V377.486ZM-38.7429 377.486H43.9534V294.789H-38.7429V377.486ZM47.5813 377.486H128.775V313.656C125.732 310.914 122.757 308.1 119.85 305.217L47.5813 377.486ZM130.901 377.486H213.597V364.368C182.883 353.389 154.89 336.688 130.901 315.55V377.486ZM215.723 377.486H269.871C251.128 375.319 233.003 371.121 215.723 365.117V377.486ZM383.24 365.117C365.961 371.121 347.836 375.319 329.092 377.486H383.24V365.117ZM468.063 315.549C444.074 336.688 416.08 353.389 385.366 364.368V377.486H468.063V315.549ZM479.114 305.217C476.207 308.1 473.231 310.914 470.189 313.655V377.486H551.381L479.114 305.217ZM555.01 377.486H637.706V294.789H555.01V377.486ZM215.723 362.865C241.621 371.949 269.446 376.938 298.419 377.057V294.789H215.723V362.865ZM300.545 377.057C329.518 376.938 357.342 371.949 383.24 362.865V294.789H300.545V377.057ZM46.0793 375.982L118.346 303.714C115.463 300.808 112.65 297.832 109.908 294.789H46.0793V375.982ZM489.054 294.789C486.313 297.832 483.499 300.807 480.616 303.714L552.885 375.982V294.789H489.054ZM130.901 312.707C154.814 334.094 182.82 351.001 213.597 362.108V294.789H130.901V312.707ZM385.366 362.108C416.144 351.001 444.149 334.094 468.063 312.706V294.789H385.366V362.108ZM121.353 303.714C123.779 306.12 126.253 308.478 128.775 310.785V296.292L121.353 303.714ZM470.189 310.784C472.71 308.477 475.185 306.12 477.611 303.714L470.189 296.292V310.784ZM112.781 294.789C115.087 297.311 117.444 299.785 119.85 302.211L127.271 294.789H112.781ZM479.114 302.211C481.519 299.785 483.876 297.311 486.183 294.789H471.692L479.114 302.211ZM724.654 292.664V294.789H724.019L724.013 292.664H724.654ZM-123.565 292.664H-40.8689V209.967H-123.565V292.664ZM-38.7429 292.664H43.9534V209.967H-38.7429V292.664ZM46.0793 292.664H108.015C86.8766 268.674 70.1756 240.681 59.1965 209.967H46.0793V292.664ZM61.4563 209.967C72.5635 240.745 89.4705 268.75 110.858 292.664H128.775V209.967H61.4563ZM132.404 292.664H213.597V211.47L132.404 292.664ZM215.723 292.664H298.419V209.967H215.723V292.664ZM300.545 292.664H383.24V209.967H300.545V292.664ZM385.366 292.664H466.56L385.366 211.47V292.664ZM470.189 292.664H488.106C509.493 268.75 526.4 240.745 537.507 209.967H470.189V292.664ZM539.767 209.967C528.788 240.681 512.087 268.674 490.948 292.664H552.885V209.967H539.767ZM555.01 292.664H637.706V209.967H555.01V292.664ZM468.063 291.161V209.967H386.87L468.063 291.161ZM130.901 291.16L212.093 209.967H130.901V291.16ZM724.654 207.842V209.967H723.805L723.8 207.842H724.654ZM-123.565 207.841H-40.8689V125.146H-123.565V207.841ZM-38.7429 207.841H43.9534V125.146H-38.7429V207.841ZM46.0793 207.841H58.4475C52.4441 190.563 48.2461 172.44 46.0793 153.699V207.841ZM46.5061 125.146C46.6254 154.119 51.6154 181.943 60.6995 207.841H128.775V125.146H46.5061ZM130.901 207.841H213.597V125.146H130.901V207.841ZM217.225 207.841H284.73C267.524 204.832 252.096 196.65 240.11 184.957L217.225 207.841ZM358.854 184.957C346.867 196.65 331.44 204.832 314.234 207.841H381.738L358.854 184.957ZM385.366 207.841H468.063V125.146H385.366V207.841ZM470.189 207.841H538.263C547.347 181.943 552.337 154.119 552.456 125.146H470.189V207.841ZM552.885 153.694C550.718 172.437 546.52 190.562 540.516 207.841H552.885V153.694ZM555.01 207.841H637.706V125.146H555.01V207.841ZM241.613 183.455C256.317 197.789 276.328 206.706 298.419 206.984V126.648L241.613 183.455ZM300.545 206.984C322.636 206.706 342.646 197.789 357.35 183.455L300.545 126.649V206.984ZM383.24 138.834C380.231 156.04 372.049 171.468 360.357 183.455L383.24 206.338V138.834ZM215.723 206.337L238.606 183.455C226.914 171.469 218.733 156.043 215.723 138.838V206.337ZM216.579 125.146C216.857 147.237 225.775 167.247 240.11 181.952L296.915 125.146H216.579ZM358.854 181.952C373.188 167.247 382.105 147.237 382.383 125.146H302.048L358.854 181.952ZM-123.565 123.02H-40.8689V40.3237H-123.565V123.02ZM-38.7429 123.02H43.9534V40.3237H-38.7429V123.02ZM60.6995 40.3237C51.6154 66.2221 46.6252 94.0465 46.5061 123.02H128.775V40.3237H60.6995ZM130.901 123.02H213.597V40.3237H130.901V123.02ZM240.11 66.2133C225.775 80.9179 216.857 100.928 216.579 123.02H296.916L240.11 66.2133ZM302.047 123.02H382.383C382.106 100.928 373.188 80.9179 358.854 66.2133L302.047 123.02ZM385.366 123.02H468.063V40.3237H385.366V123.02ZM470.189 123.02H552.456C552.337 94.0465 547.348 66.2221 538.264 40.3237H470.189V123.02ZM555.01 123.02H637.706V40.3237H555.01V123.02ZM298.419 41.1801C276.327 41.4576 256.317 50.3759 241.613 64.7104L298.419 121.516V41.1801ZM300.545 121.516L357.351 64.7104C342.647 50.3761 322.636 41.4579 300.545 41.1801V121.516ZM360.357 64.7104C372.049 76.697 380.231 92.1238 383.24 109.33V41.8266L360.357 64.7104ZM215.723 109.326C218.733 92.1216 226.914 76.6961 238.606 64.7104L215.723 41.8266V109.326ZM540.516 40.3237C546.52 57.603 550.718 75.7272 552.885 94.4702V40.3237H540.516ZM46.0793 94.4653C48.2461 75.724 52.4443 57.6015 58.4475 40.3237H46.0793V94.4653ZM240.11 63.2065C252.095 51.5151 267.521 43.3339 284.725 40.3237H217.226L240.11 63.2065ZM314.239 40.3237C331.443 43.3339 346.868 51.5151 358.854 63.2065L381.737 40.3237H314.239ZM-123.565 38.1977H-40.8689V-44.4986H-123.565V38.1977ZM-38.7429 38.1977H43.9534V-44.4986H-38.7429V38.1977ZM46.0793 38.1977H59.1965C70.1755 7.48432 86.8759 -20.5094 108.014 -44.4986H46.0793V38.1977ZM110.857 -44.4986C89.4697 -20.5851 72.5624 7.42025 61.4553 38.1977H128.775V-44.4986H110.857ZM130.901 38.1977H212.094L130.901 -42.9947V38.1977ZM215.723 38.1977H298.419V-44.4986H215.723V38.1977ZM300.545 38.1977H383.24V-44.4986H300.545V38.1977ZM386.869 38.1977H468.063V-42.9957L386.869 38.1977ZM470.189 38.1977H537.507C526.4 7.42037 509.494 -20.5851 488.107 -44.4986H470.189V38.1977ZM490.949 -44.4986C512.088 -20.5094 528.788 7.4843 539.767 38.1977H552.885V-44.4986H490.949ZM555.01 38.1977H637.706V-44.4986H555.01V38.1977ZM213.597 36.6948V-44.4986H132.405L213.597 36.6948ZM385.366 36.6938L466.559 -44.4986H385.366V36.6938ZM-123.565 -46.6236H-40.8689V-129.32H-123.565V-46.6236ZM-38.7429 -46.6236H43.9534V-129.32H-38.7429V-46.6236ZM46.0793 -46.6236H109.908C112.65 -49.666 115.463 -52.6424 118.346 -55.5494L46.0793 -127.817V-46.6236ZM119.85 -54.0464C117.444 -51.6202 115.086 -49.1452 112.78 -46.6236H127.272L119.85 -54.0464ZM213.597 -113.944C182.82 -102.837 154.814 -85.9296 130.901 -64.5425V-46.6236H213.597V-113.944ZM298.419 -128.893C269.446 -128.774 241.621 -123.784 215.723 -114.7V-46.6236H298.419V-128.893ZM300.545 -46.6236H383.24V-114.7C357.342 -123.784 329.518 -128.774 300.545 -128.893V-46.6236ZM385.366 -46.6236H468.063V-64.5425C444.149 -85.9296 416.144 -102.836 385.366 -113.943V-46.6236ZM471.691 -46.6236H486.184C483.877 -49.1452 481.52 -51.6202 479.114 -54.0464L471.691 -46.6236ZM480.616 -55.5494C483.5 -52.6423 486.313 -49.6661 489.055 -46.6236H552.885V-127.818L480.616 -55.5494ZM555.01 -46.6236H637.706V-129.32H555.01V-46.6236ZM128.775 -62.6197C126.253 -60.313 123.779 -57.9553 121.353 -55.5494L128.775 -48.1275V-62.6197ZM470.189 -48.1285L477.611 -55.5494C475.185 -57.9551 472.71 -60.3122 470.189 -62.6187V-48.1285ZM119.85 -57.0533C122.757 -59.9361 125.732 -62.7496 128.775 -65.4908V-129.32H47.5823L119.85 -57.0533ZM470.189 -65.4908C473.231 -62.7496 476.207 -59.9361 479.114 -57.0533L551.381 -129.32H470.189V-65.4908ZM130.901 -67.3853C154.89 -88.5234 182.883 -105.224 213.597 -116.203V-129.32H130.901V-67.3853ZM385.366 -116.203C416.08 -105.224 444.074 -88.5235 468.063 -67.3853V-129.32H385.366V-116.203ZM215.723 -116.952C233 -122.955 251.123 -127.153 269.864 -129.32H215.723V-116.952ZM329.099 -129.32C347.84 -127.153 365.963 -122.955 383.24 -116.952V-129.32H329.099ZM-123.565 -131.446H-40.8689V-214.142H-123.565V-131.446ZM-38.7429 -131.446H42.4504L-38.7429 -212.639V-131.446ZM46.0793 -131.446H128.775V-214.142H46.0793V-131.446ZM130.901 -131.446H213.597V-214.142H130.901V-131.446ZM215.723 -131.446H298.419V-214.142H215.723V-131.446ZM300.545 -131.446H383.24V-214.142H300.545V-131.446ZM385.366 -131.446H468.063V-214.142H385.366V-131.446ZM470.189 -131.446H552.885V-214.142H470.189V-131.446ZM556.513 -131.446H637.706V-212.639L556.513 -131.446ZM43.9534 -132.949V-214.142H-37.24L43.9534 -132.949ZM555.01 -132.95L636.202 -214.142H555.01V-132.95ZM-123.565 -216.268H-42.3718L-123.565 -297.461V-216.268ZM-38.7429 -216.268H43.9534V-298.963H-38.7429V-216.268ZM46.0793 -216.268H128.775V-298.963H46.0793V-216.268ZM130.901 -216.268H213.597V-298.963H130.901V-216.268ZM215.723 -216.268H298.419V-298.963H215.723V-216.268ZM300.545 -216.268H383.24V-298.963H300.545V-216.268ZM385.366 -216.268H468.063V-298.963H385.366V-216.268ZM470.189 -216.268H552.885V-298.963H470.189V-216.268ZM555.01 -216.268H637.706V-298.963H555.01V-216.268ZM-40.8689 -217.771V-298.963H-122.061L-40.8689 -217.771ZM639.832 -217.772L721.025 -298.963H639.832V-217.772ZM724.655 -301.089L725.406 -300.338L724.655 -299.587V-301.089H723.151L723.902 -301.841L724.655 -301.089Z" fill="#D9D9D9"/>
</g>
</svg>
